<?xml version="1.0" encoding="UTF-8"?>
<svg id="Layer_1" xmlns="http://www.w3.org/2000/svg" version="1.1" viewBox="0 0 64 64">
  <!-- Generator: Adobe Illustrator 29.3.0, SVG Export Plug-In . SVG Version: 2.1.0 Build 146)  -->
  <defs>
    <style>
      .st0 {
        fill: #fff;
      }

      .st1 {
        fill: #42b883;
      }
    </style>
  </defs>
  <path class="st1" d="M32,1.8C15.4,1.8,2,15.2,2,31.8s13.4,30,30,30,30-13.4,30-30S48.6,1.8,32,1.8"/>
  <path class="st0" d="M19,13.8c.5,0,1.2.5,1.6.8l11.4,11.3c.9.2,10.6-11.2,12.6-12,.2-.1.4-.1.7,0,.7.1,3.9,3.3,4.4,3.9.7,1,.4,1.5-.2,2.4l-11.5,11.5c-.2.9,11.2,10.6,12,12.6.1.2.1.4,0,.7-.1.7-3.3,3.9-3.9,4.4-1,.7-1.5.4-2.4-.2l-11.5-11.5c-.9-.2-10.6,11.2-12.6,12-.2.1-.4.1-.7,0-.7-.1-3.9-3.3-4.4-3.9-.7-1-.4-1.5.2-2.4l11.5-11.5-12.1-12.8c0-.2,0-.5,0-.7.2-.8,4-4.6,4.9-4.6Z"/>
</svg>